<?xml version="1.0" encoding="UTF-8"?>
<!DOCTYPE svg PUBLIC "-//W3C//DTD SVG 1.1//EN" "http://www.w3.org/Graphics/SVG/1.1/DTD/svg11.dtd">
<!-- Creator: CorelDRAW X7 -->
<svg xmlns="http://www.w3.org/2000/svg" xml:space="preserve" width="210mm" height="297mm" version="1.1" style="shape-rendering:geometricPrecision; text-rendering:geometricPrecision; image-rendering:optimizeQuality; fill-rule:evenodd; clip-rule:evenodd"
viewBox="0 0 21000 29700"
 xmlns:xlink="http://www.w3.org/1999/xlink">
 <defs>
  <style type="text/css">
   <![CDATA[
    .str6 {stroke:white;stroke-width:10.4}
    .str4 {stroke:#E2B3B3;stroke-width:12.96}
    .str1 {stroke:#E2B3B3;stroke-width:8.02}
    .str3 {stroke:white;stroke-width:11.46}
    .str0 {stroke:#E2B3B3;stroke-width:11.72}
    .str2 {stroke:#E2B3B3;stroke-width:12.09}
    .str11 {stroke:#FEFEFE;stroke-width:20}
    .str10 {stroke:#332C2B;stroke-width:20}
    .str13 {stroke:#F08519;stroke-width:20}
    .str5 {stroke:white;stroke-width:12.65}
    .str9 {stroke:#C3707A;stroke-width:10.42;stroke-linecap:round;stroke-linejoin:round}
    .str8 {stroke:#8C453A;stroke-width:10.56;stroke-linecap:round;stroke-linejoin:round}
    .str7 {stroke:#C3707A;stroke-width:10.64;stroke-linecap:round;stroke-linejoin:round}
    .str14 {stroke:#231915;stroke-width:5.46}
    .str15 {stroke:#FEFEFE;stroke-width:5.46}
    .str12 {stroke:#231915;stroke-width:3.68}
    .fil0 {fill:none}
    .fil23 {fill:#FEFEFE}
    .fil24 {fill:#F08519}
    .fil25 {fill:#E62129}
    .fil6 {fill:black}
    .fil2 {fill:#006BE4}
    .fil13 {fill:#0458AF}
    .fil22 {fill:#0A0A0A}
    .fil14 {fill:#0C0005}
    .fil19 {fill:#111012}
    .fil5 {fill:#13CA92}
    .fil17 {fill:#171223}
    .fil7 {fill:#171D21}
    .fil10 {fill:#231B22}
    .fil15 {fill:#243033}
    .fil18 {fill:#A7614E}
    .fil26 {fill:#E50012}
    .fil12 {fill:#E7ABA0}
    .fil21 {fill:#EBB023}
    .fil11 {fill:#F16532}
    .fil9 {fill:#F5A5A9}
    .fil8 {fill:#F7A7AB}
    .fil20 {fill:#F8C22D}
    .fil3 {fill:#FC7341}
    .fil1 {fill:#FDE6E1}
    .fil4 {fill:#FDFDFD}
    .fil16 {fill:white}
   ]]>
  </style>
    <clipPath id="id0">
     <rect x="10363" y="14761" width="275" height="178"/>
    </clipPath>
     <mask id="id1">
  <linearGradient id="id2" gradientUnits="userSpaceOnUse" x1="6782.26" y1="11690.4" x2="6838.52" y2="11713.8">
   <stop offset="0" style="stop-opacity:1; stop-color:white"/>
   <stop offset="1" style="stop-opacity:0; stop-color:white"/>
  </linearGradient>
      <rect style="fill:url(#id2)" x="6692" y="11593" width="238" height="218"/>
     </mask>
     <mask id="id3">
  <linearGradient id="id4" gradientUnits="userSpaceOnUse" x1="6535.14" y1="11960.3" x2="6691.5" y2="12025.4">
   <stop offset="0" style="stop-opacity:1; stop-color:white"/>
   <stop offset="1" style="stop-opacity:0; stop-color:white"/>
  </linearGradient>
      <rect style="fill:url(#id4)" x="6301" y="11708" width="625" height="570"/>
     </mask>
    <clipPath id="id5">
     <rect x="10331" y="14691" width="339" height="318"/>
    </clipPath>
     <mask id="id6">
  <linearGradient id="id7" gradientUnits="userSpaceOnUse" x1="6943" y1="11817.6" x2="6999.28" y2="11841.1">
   <stop offset="0" style="stop-opacity:1; stop-color:white"/>
   <stop offset="1" style="stop-opacity:0; stop-color:white"/>
  </linearGradient>
      <rect style="fill:url(#id7)" x="6852" y="11720" width="238" height="218"/>
     </mask>
     <mask id="id8">
  <linearGradient id="id9" gradientUnits="userSpaceOnUse" x1="16628.8" y1="10514.6" x2="16963.5" y2="10654">
   <stop offset="0" style="stop-opacity:1; stop-color:white"/>
   <stop offset="1" style="stop-opacity:0; stop-color:white"/>
  </linearGradient>
      <rect style="fill:url(#id9)" x="16139" y="9986" width="1315" height="1197"/>
     </mask>
 </defs>
 <g id="Layer_x0020_1">
  <metadata id="CorelCorpID_0Corel-Layer"/>
  <g id="_2484085343728">
   <path id="Stroke-1" class="fil0 str0" d="M16437 18389l-11128 0c-148,0 -267,-119 -267,-266l0 -6845c0,-146 119,-265 267,-265l11128 0c147,0 266,119 266,265l0 6845c0,147 -119,266 -266,266z"/>
   <path id="Fill-3" class="fil1" d="M17070 17830l-11128 0c-147,0 -267,-119 -267,-265l0 -6845c0,-147 120,-266 267,-266l11128 0c147,0 266,119 266,266l0 6845c0,146 -119,265 -266,265z"/>
   <path id="Fill-5" class="fil2" d="M6756 10920c0,72 -59,130 -131,130 -72,0 -130,-58 -130,-130 0,-72 58,-131 130,-131 72,0 131,59 131,131z"/>
   <path id="Fill-7" class="fil3" d="M7203 10920c0,72 -58,130 -130,130 -72,0 -131,-58 -131,-130 0,-72 59,-131 131,-131 72,0 130,59 130,131z"/>
   <path id="Stroke-9" class="fil0 str1" d="M7687 10920c0,72 -58,130 -130,130 -72,0 -131,-58 -131,-130 0,-72 59,-131 131,-131 72,0 130,59 130,131z"/>
   <path id="Stroke-11" class="fil0 str2" d="M15532 16862l-3507 0c-71,0 -128,-58 -128,-128l0 -1942c0,-71 57,-128 128,-128l3507 0c70,0 128,57 128,128l0 1942c0,70 -58,128 -128,128z"/>
   <path id="Stroke-13" class="fil0 str2" d="M10502 16825l-3730 0c-71,0 -128,-58 -128,-130l0 -4510c0,-71 57,-129 128,-129l3730 0c71,0 128,58 128,129l0 4510c0,72 -57,130 -128,130z"/>
   <path id="Stroke-15" class="fil0 str3" d="M9586 14999l-2158 0c-63,0 -113,-50 -113,-112l0 -2011c0,-62 50,-112 113,-112l2158 0c62,0 113,50 113,112l0 2011c0,62 -51,112 -113,112z"/>
   <line id="Stroke-17" class="fil0 str3" x1="7277" y1="15409" x2="9625" y2= "15409" />
   <line id="Stroke-19" class="fil0 str3" x1="7277" y1="15819" x2="8507" y2= "15819" />
   <line id="Stroke-21" class="fil0 str3" x1="7277" y1="16228" x2="8991" y2= "16228" />
   <path id="Stroke-23" class="fil0 str3" d="M14531 13993l-2436 0c-68,0 -123,-55 -123,-124l0 -2435c0,-68 55,-123 123,-123l2436 0c68,0 123,55 123,123l0 2435c0,69 -55,124 -123,124z"/>
   <path id="Stroke-25" class="fil0 str3" d="M14116 13211l-1644 0c-71,0 -128,-50 -128,-112 0,-62 57,-112 128,-112l1644 0c71,0 128,50 128,112 0,62 -57,112 -128,112z"/>
   <path id="Stroke-27" class="fil0 str3" d="M14116 12354l-1644 0c-71,0 -128,-50 -128,-112 0,-62 57,-112 128,-112l1644 0c71,0 128,50 128,112 0,62 -57,112 -128,112z"/>
   <path id="Fill-29" class="fil2" d="M13015 12261c0,113 -92,205 -205,205 -113,0 -205,-92 -205,-205 0,-113 92,-205 205,-205 113,0 205,92 205,205z"/>
   <path id="Stroke-31" class="fil0 str0" d="M3212 11162l-848 0c-44,0 -79,33 -79,74l0 444c0,41 35,74 79,74l346 0 290 302 0 -291 214 -4c43,-1 77,-34 77,-74l0 -451c0,-41 -35,-74 -79,-74z"/>
   <path id="Stroke-33" class="fil0 str4" d="M2099 17607c0,123 -100,223 -224,223 -123,0 -223,-100 -223,-223 0,-124 100,-224 223,-224 124,0 224,100 224,224z"/>
   <path id="Stroke-35" class="fil0 str4" d="M19348 14887c0,103 -83,187 -186,187 -103,0 -186,-84 -186,-187 0,-103 83,-186 186,-186 103,0 186,83 186,186z"/>
   <polygon id="Stroke-37" class="fil0 str4" points="11115,9038 11487,9038 11487,8666 11115,8666 "/>
   <path id="Fill-39" class="fil2" d="M13672 15409l1019 0 0 -1021c0,-74 -60,-134 -135,-134l-884 0c-75,0 -136,60 -136,134l0 887c0,74 61,134 136,134z"/>
   <polygon id="Fill-40" class="fil2" points="14728,15223 14728,15632 14356,15223 "/>
   <path id="Fill-41" class="fil4" d="M13987 15035c107,2 214,3 312,-3 31,-2 57,-48 20,-62 16,-8 32,-15 39,-32 6,-15 -2,-36 -19,-40 37,8 51,-46 22,-64 16,-12 28,-27 31,-46 4,-18 -4,-39 -22,-48 -11,-5 -25,-6 -38,-6 -44,0 -89,0 -133,-1 12,-64 16,-134 -19,-190 -11,-17 -39,-37 -62,-24 -21,12 -15,42 -14,62 4,79 -45,160 -121,197 0,0 5,170 4,257z"/>
   <polygon id="Fill-42" class="fil4" points="13872,15036 14021,15036 14021,14813 13872,14813 "/>
   <path id="Fill-43" class="fil5" d="M7846 13360l-1338 0c-151,0 -274,-127 -274,-283l0 -1396c0,-122 96,-221 214,-221l1398 0c118,0 214,99 214,221l0 1458c0,122 -96,221 -214,221z"/>
   <polyline id="Stroke-44" class="fil0 str5" points="6421,12764 6940,12351 7129,12560 7650,12168 "/>
   <polyline id="Stroke-45" class="fil0 str5" points="7575,12130 7650,12159 7639,12279 "/>
   <path id="Fill-46" class="fil5" d="M18365 12950l-2989 0c-90,0 -163,-73 -163,-164l0 -2951c0,-90 73,-163 163,-163l2989 0c90,0 164,73 164,163l0 2951c0,91 -74,164 -164,164z"/>
   <line id="Stroke-47" class="fil0 str3" x1="16293" y1="11534" x2="17001" y2= "11534" />
   <line id="Stroke-48" class="fil0 str3" x1="15846" y1="11907" x2="17970" y2= "11907" />
   <line id="Stroke-49" class="fil0 str3" x1="15846" y1="12317" x2="16479" y2= "12317" />
   <line id="Stroke-50" class="fil0 str3" x1="16591" y1="12317" x2="17038" y2= "12317" />
   <line id="Stroke-51" class="fil0 str3" x1="15846" y1="11534" x2="16107" y2= "11534" />
   <path id="Stroke-52" class="fil0 str3" d="M16666 10387l0 431c0,35 39,57 71,40l389 -216c32,-17 32,-61 0,-78l-389 -216c-32,-17 -71,5 -71,39z"/>
   <path id="Stroke-53" class="fil0 str6" d="M17411 10584c0,340 -275,615 -615,615 -339,0 -615,-275 -615,-615 0,-339 276,-614 615,-614 340,0 615,275 615,614z"/>
   <path id="Fill-54" class="fil6" d="M16794 19283l-1262 0c-73,0 -133,-58 -133,-130 0,-72 60,-130 133,-130l1262 0c73,0 133,58 133,130 0,72 -60,130 -133,130z"/>
   <polygon id="Fill-55" class="fil7" points="15958,20885 17672,20885 17672,20736 15958,20736 "/>
   <path id="Fill-56" class="fil7" d="M16105 20883c12,71 -36,138 -107,150 -71,11 -138,-37 -150,-108 -12,-71 36,-138 107,-150 71,-11 138,37 150,108z"/>
   <polygon id="Fill-57" class="fil7" points="16703,20885 16889,20885 16889,19172 16703,19172 "/>
   <path id="Fill-58" class="fil7" d="M17782 20883c11,71 -37,138 -108,150 -71,11 -138,-37 -150,-108 -11,-71 37,-138 108,-150 71,-11 138,37 150,108z"/>
   <path id="Fill-59" class="fil7" d="M17655 19246l-1506 0c-103,0 -177,-99 -147,-198l719 -2448c19,-66 79,-111 147,-111l1507 0c102,0 176,100 147,198l-719 2448c-20,66 -80,111 -148,111z"/>
   <path id="Fill-60" class="fil8" d="M17443 19246l-1296 0c-101,0 -174,-99 -146,-198l711 -2448c19,-66 78,-111 145,-111l1296 0c101,0 174,100 146,198l-711 2448c-19,66 -78,111 -145,111z"/>
   <path id="Fill-61" class="fil7" d="M17689 19283l-1562 0c-73,0 -132,-58 -132,-130 0,-72 59,-130 132,-130l1562 0c73,0 132,58 132,130 0,72 -59,130 -132,130z"/>
   <polygon id="Fill-62" class="fil9" points="15734,20226 15379,20438 15101,19942 15457,19730 "/>
   <path id="Fill-63" class="fil10" d="M15716 20140l-448 266 -238 354c-52,83 -54,189 -6,274l897 -531 -205 -363z"/>
   <path id="Fill-64" class="fil10" d="M15250 20438l20 -186c0,0 127,-114 204,57l-224 129z"/>
   <path id="Fill-65" class="fil11" d="M14994 17796c0,0 -1099,-55 -1005,358 94,414 808,2098 808,2098l919 -233 -695 -1273 1347 -498 -1374 -452z"/>
   <polygon id="Fill-66" class="fil9" points="14766,20699 15176,20699 15176,20103 14766,20103 "/>
   <path id="Fill-67" class="fil10" d="M15213 20625l-540 0 -395 180c-89,45 -146,133 -146,229l1081 0 0 -409z"/>
   <path id="Fill-68" class="fil10" d="M14617 20654l107 -176c0,0 167,-37 153,184l-260 -8z"/>
   <path id="Fill-69" class="fil3" d="M16033 18054l-1284 20c-111,1 -214,63 -260,164 -36,78 -63,194 -58,364 14,474 154,1650 154,1650l771 0 -104 -1243 1414 -18c290,-3 562,-164 685,-426 51,-109 77,-233 47,-364l-1365 -147z"/>
   <path id="Fill-70" class="fil12" d="M14728 17783c1,138 -90,159 -224,159 -133,0 -260,-20 -260,-158 0,-139 108,-251 242,-252 134,0 242,112 242,251z"/>
   <path id="Fill-71" class="fil12" d="M14900 17904l-268 1c-70,0 -127,-58 -127,-130 0,-72 57,-130 127,-130l267 -1c70,0 127,58 128,130 0,72 -57,130 -127,130z"/>
   <path id="Fill-72" class="fil13" d="M14859 17979l-93 -457 1077 -253 208 -1182c24,-122 167,-252 289,-228 122,23 234,165 211,287l-134 1541c-17,87 -82,156 -168,177l-1390 115z"/>
   <path id="Fill-73" class="fil2" d="M17260 15850c280,12 403,307 412,505l-270 1885c-1167,-10 -1332,-147 -1332,-147l0 -1900c14,-183 96,-355 301,-372l420 -40 469 69z"/>
   <path id="Fill-74" class="fil9" d="M16464 15823l307 -42 342 49c0,0 -30,251 -460,207 -64,-7 -127,-28 -171,-63 -43,-35 -54,-83 -18,-151z"/>
   <polygon id="Fill-75" class="fil13" points="16368,17532 16966,17313 17035,16676 17076,17412 "/>
   <path id="Fill-76" class="fil13" d="M17448 17868c-4,-1 -31,182 -31,182 0,0 -1306,100 -1496,-11l1527 -171z"/>
   <path id="Fill-77" class="fil12" d="M15845 17914c10,138 -79,165 -213,175 -133,9 -260,-3 -270,-140 -9,-138 92,-257 225,-267 134,-9 249,95 258,232z"/>
   <path id="Fill-78" class="fil12" d="M16026 18036l-267 18c-70,4 -131,-47 -136,-113 -5,-67 48,-125 118,-130l267 -18c70,-4 131,47 136,113 5,67 -49,126 -118,130z"/>
   <path id="Fill-79" class="fil2" d="M16009 18091l-126 -522 1230 -202 -62 -1032c-49,-229 164,-429 329,-402 158,-3 288,118 318,351l85 1409c-10,88 -72,162 -158,189l-1616 209z"/>
   <path id="Fill-80" class="fil14" d="M13865 16527l1377 130c45,4 81,39 86,85l145 1242c7,61 -44,113 -105,107l-1399 -132c-46,-5 -83,-41 -87,-87l-122 -1240c-6,-60 45,-111 105,-105z"/>
   <path id="Fill-81" class="fil15" d="M13791 16527l1376 130c46,4 82,40 87,85l144 1242c8,61 -43,113 -104,107l-1400 -132c-46,-5 -82,-41 -87,-87l-121 -1240c-6,-60 44,-111 105,-105z"/>
   <path id="Fill-82" class="fil14" d="M15430 18017l964 85c29,3 51,28 48,55 -3,28 -29,48 -58,46l-1022 -88 68 -98z"/>
   <path id="Fill-83" class="fil16" d="M14542 17265c-7,72 -71,124 -142,118 -72,-7 -125,-71 -118,-142 7,-72 70,-125 142,-118 72,7 124,71 118,142z"/>
   <path id="Fill-84" class="fil14" d="M16259 14105c143,-7 266,94 287,230 34,-24 74,-39 118,-41 119,-6 217,45 245,162 684,-73 43,916 43,916l-52 -381 -19 -428c-24,86 -102,150 -196,154 -100,5 -187,-58 -216,-147 -47,47 -111,77 -183,81 -153,7 -283,-109 -291,-260 -7,-151 111,-279 264,-286z"/>
   <path id="Fill-85" class="fil9" d="M17001 15036l-14 756c-3,134 -106,243 -236,250 -140,7 -258,-106 -261,-250l-11 -635 522 -121z"/>
   <path id="Fill-86" class="fil14" d="M16964 15223c0,0 0,460 -444,405l-3 -213 447 -192z"/>
   <path id="Fill-87" class="fil9" d="M16564 15558l16 0c232,0 421,-188 421,-421l0 -476c0,-60 -49,-109 -109,-109l-553 0c-107,0 -194,87 -195,194l0 390c0,233 188,422 420,422z"/>
   <path id="Fill-88" class="fil14" d="M16556 14964c2,20 19,34 38,33 19,-2 33,-19 32,-38 -2,-19 -18,-33 -37,-32 -20,2 -34,18 -33,37z"/>
   <path id="Fill-89" class="fil14" d="M16221 14964c2,20 18,34 38,33 19,-2 33,-19 32,-38 -2,-19 -19,-33 -38,-32 -19,2 -33,18 -32,37z"/>
   <path id="Stroke-90" class="fil0 str7" d="M16341 14999l-11 52c0,0 6,32 75,20"/>
   <path id="Fill-91" class="fil14" d="M16676 14847c-2,1 -4,1 -6,1l-159 -6c-18,-1 -32,-16 -31,-33 0,-18 15,-32 33,-31l159 6c18,0 32,15 31,33 -1,15 -12,28 -27,30z"/>
   <path id="Fill-92" class="fil14" d="M16306 14846c-2,0 -4,1 -6,0l-90 -3c-16,-1 -29,-16 -29,-33 1,-18 15,-32 31,-31l90 4c16,0 29,15 28,33 0,15 -11,28 -24,30z"/>
   <path id="Stroke-93" class="fil0 str7" d="M16293 15245c0,0 99,64 224,5"/>
   <path id="Fill-94" class="fil14" d="M16952 15074c0,0 -241,-57 -195,-433l-613 -11 15 -153 679 10c97,1 172,87 162,186l-48 401z"/>
   <path id="Fill-95" class="fil9" d="M16889 15055c0,72 59,130 131,130 72,0 130,-58 130,-130 0,-72 -58,-130 -130,-130 -72,-1 -131,58 -131,130z"/>
   <path id="Fill-96" class="fil17" d="M11479 12569c-137,137 -336,160 -445,51 -108,-108 -85,-307 51,-444 137,-137 337,-160 445,-51 109,108 86,307 -51,444z"/>
   <path id="Fill-97" class="fil3" d="M11264 12596c0,113 -92,205 -205,205 -113,0 -205,-92 -205,-205 0,-113 92,-205 205,-205 113,0 205,92 205,205z"/>
   <path id="Fill-98" class="fil17" d="M10109 12968c13,314 317,590 641,578 324,-13 601,-302 588,-616 -13,-314 -282,-592 -650,-530 -319,54 -592,255 -579,568z"/>
   <path id="Fill-99" class="fil18" d="M10965 13850l-25 -676 -421 18 25 676c5,115 104,205 220,199 116,-5 207,-102 201,-217z"/>
   <path id="Fill-100" class="fil17" d="M11003 13211c0,0 -24,514 -400,521l-10 -256 410 -265z"/>
   <path id="Fill-101" class="fil18" d="M10636 13620l0 0c-232,9 -427,-119 -437,-343l-15 -386c-7,-165 172,-347 273,-351l376 87c101,-4 187,73 191,170l16 384c9,225 -209,432 -404,439z"/>
   <path id="Fill-102" class="fil10" d="M10597 13140c2,18 19,31 37,29 18,-2 31,-18 29,-36 -2,-19 -18,-32 -36,-30 -19,2 -32,19 -30,37z"/>
   <path id="Fill-103" class="fil10" d="M10262 13140c2,18 18,31 37,29 18,-2 31,-18 29,-36 -2,-19 -18,-32 -37,-30 -18,2 -31,19 -29,37z"/>
   <path id="Stroke-104" class="fil0 str8" d="M10412 13174l-5 110c0,0 7,58 74,32"/>
   <path id="Fill-105" class="fil10" d="M10716 13017c-2,1 -4,1 -6,1l-159 -1c-18,0 -32,-13 -32,-30 0,-17 14,-30 32,-30l159 0c18,0 32,14 32,31 0,14 -11,26 -26,29z"/>
   <path id="Fill-106" class="fil10" d="M10346 13017c-2,1 -4,1 -6,1l-90 0c-16,-1 -29,-14 -29,-31 0,-17 13,-30 29,-30l90 0c16,0 30,14 30,30 0,15 -11,27 -24,30z"/>
   <path id="Fill-107" class="fil16" d="M10370 13360l223 0c0,0 -21,82 -135,74 -77,-6 -88,-74 -88,-74z"/>
   <path id="Fill-108" class="fil17" d="M10854 12846c0,0 4,233 135,253l88 -261 -223 8z"/>
   <path id="Fill-109" class="fil18" d="M11189 13112c3,72 -53,133 -125,136 -72,3 -133,-53 -135,-125 -3,-72 53,-133 125,-136 72,-3 132,53 135,125z"/>
   <path id="Fill-110" class="fil17" d="M10851 12392c0,0 -787,-46 -779,483l1080 0 -146 -359 -155 -124z"/>
   <polygon id="Fill-111" class="fil18" points="11124,20662 10817,20662 10888,19544 11264,19544 "/>
   <path id="Fill-112" class="fil10" d="M10764 20625l540 0 379 180c86,45 140,133 140,229l-1081 -12 22 -397z"/>
   <path id="Fill-113" class="fil10" d="M11301 20654l-107 -176c0,0 -168,-37 -153,184l260 -8z"/>
   <path id="Fill-114" class="fil10" d="M11343 15297c0,0 645,452 377,1960l-377 2548 -564 0 33 -4030 -33 -478 564 0z"/>
   <polygon id="Fill-115" class="fil18" points="9177,20662 9494,20662 9811,19544 9423,19544 "/>
   <path id="Fill-116" class="fil10" d="M9528 20625l-540 0 -379 180c-85,45 -139,133 -139,229l1080 -12 -22 -397z"/>
   <path id="Fill-117" class="fil10" d="M8917 20654l107 -176c0,0 167,-37 153,184l-260 -8z"/>
   <path id="Fill-118" class="fil10" d="M10294 15297c0,0 -283,257 -490,1388 -208,1131 -589,3079 -589,3079l530 41 1144 -3516 77 -992 -672 0z"/>
   <polygon id="Fill-119" class="fil19" points="10854,16657 10560,16266 10444,17756 "/>
   <path id="Fill-120" class="fil18" d="M9550 14701c19,1 59,-5 78,-9l1114 -246c159,-25 391,-268 323,-419 -49,-112 -169,-169 -282,-136l-1140 402 -93 408z"/>
   <path id="Fill-121" class="fil18" d="M9635 14319l-1023 -698 -142 181 843 836c147,129 425,48 487,-138 42,-128 -44,-119 -165,-181z"/>
   <path id="Fill-122" class="fil18" d="M8638 13670c-48,114 -179,167 -292,119 -114,-48 -168,-179 -120,-292 48,-114 179,-168 293,-120 114,48 167,179 119,293z"/>
   <path id="Fill-123" class="fil18" d="M8470 13349l-170 -130c-14,-12 -35,-11 -46,3 -11,12 -10,29 0,41l157 171 59 -85z"/>
   <path id="Fill-124" class="fil20" d="M10332 13919c-219,51 -521,187 -521,187l338 483 116 -31 67 -639z"/>
   <path id="Fill-125" class="fil21" d="M10146 14552c0,0 -36,-186 0,-410l-186 151 186 259z"/>
   <path id="Fill-126" class="fil18" d="M12315 15409l104 -188 -522 -862c-67,-115 -376,-326 -468,-229 -68,70 -71,290 -11,367l640 848 257 64z"/>
   <path id="Fill-127" class="fil18" d="M12090 15397l293 1204 222 -24 -140 -1235c-2,-141 -143,-234 -268,-177 -86,39 -132,138 -107,232z"/>
   <path id="Fill-128" class="fil20" d="M11258 13919c0,0 364,53 602,375l-520 519c0,0 -335,-328 -111,-639l29 -255z"/>
   <path id="Fill-129" class="fil18" d="M12318 16574c97,-76 237,-59 314,38 76,97 59,237 -38,314 -97,76 -237,59 -314,-38 -76,-97 -59,-237 38,-314z"/>
   <path id="Fill-130" class="fil20" d="M10754 13807c0,0 -254,-19 -631,198 0,0 -76,645 126,883l29 409 1018 -5c0,0 56,-729 266,-913l-70 -364c0,0 -310,-215 -738,-208z"/>
   <path id="Fill-131" class="fil18" d="M10370 13929c0,0 385,-178 894,-19l-173 92c-220,116 -525,71 -721,-73z"/>
   <path id="Fill-132" class="fil21" d="M11376 14681l-29 31c0,0 -118,-93 -195,-235l138 708 86 -504z"/>
   <path id="Fill-133" class="fil9" d="M5085 16489c0,0 228,301 109,665 -119,363 -450,-27 -450,-27l341 -638z"/>
   <path id="Fill-134" class="fil21" d="M5178 13844c0,0 -28,-115 -285,-223l181 1408 18 -85 -139 1769 407 -24c86,-2134 -182,-2845 -182,-2845z"/>
   <path id="Fill-135" class="fil20" d="M4376 13434c0,0 -435,18 -758,218l-66 2353 1527 0 0 -2080c0,-128 -34,-235 -79,-258 -103,-52 -374,-208 -624,-233z"/>
   <polygon id="Fill-136" class="fil21" points="3552,14787 3775,14477 3775,15111 3552,15067 "/>
   <path id="Fill-137" class="fil21" d="M3552 15668c0,4 413,0 413,0l0 -90 89 0c0,0 433,92 578,-279l-351 -76 -717 154 -12 291z"/>
   <path id="Fill-138" class="fil20" d="M4111 14026c0,0 -403,555 -828,1200 -47,73 -162,110 -246,108 -191,-5 -275,-216 -206,-391 0,0 489,-1067 792,-1322 11,-9 488,405 488,405z"/>
   <path id="Fill-139" class="fil22" d="M4545 14770l-380 487c-37,48 -10,118 50,130l307 58c31,6 63,-6 82,-31l384 -486c37,-48 10,-118 -51,-129l-310 -59c-31,-6 -63,6 -82,30z"/>
   <polygon id="Fill-140" class="fil9" points="4073,15223 3577,15229 3477,15446 4034,15420 "/>
   <path id="Fill-141" class="fil9" d="M4036 15216l304 -210c15,-10 36,-9 50,3 16,14 18,38 4,54l-66 80 229 24c30,4 47,35 34,61l-35 68c-31,61 -89,106 -157,120 -118,25 -294,56 -400,-6l37 -194z"/>
   <path id="Fill-142" class="fil20" d="M2834 14887c0,0 -185,301 -57,472 130,173 689,269 1165,226l20 -459 -557 -108 -571 -131z"/>
   <path id="Fill-143" class="fil9" d="M4163 12689l-52 740c-9,131 91,246 229,264 149,19 284,-82 299,-222l68 -619 -544 -163z"/>
   <path id="Fill-144" class="fil10" d="M4197 12950c0,0 -119,520 408,522l27 -277 -435 -245z"/>
   <path id="Fill-145" class="fil10" d="M4372 12093c0,0 -306,50 -298,265 7,216 34,443 34,443l167 -352 97 -356z"/>
   <path id="Fill-146" class="fil10" d="M4967 12317c0,0 222,335 -98,484l-53 -29c0,0 -96,-261 31,-400l120 -55z"/>
   <path id="Fill-147" class="fil9" d="M4534 13359l-16 -1c-237,-12 -419,-214 -407,-451l25 -485c3,-61 55,-108 116,-105l564 28c110,6 194,99 189,209l-21 398c-12,237 -213,419 -450,407z"/>
   <path id="Fill-148" class="fil7" d="M4593 12805c-3,20 -20,33 -40,31 -19,-3 -33,-20 -30,-40 2,-19 20,-32 39,-30 20,3 33,20 31,39z"/>
   <path id="Fill-149" class="fil7" d="M4853 12843c-2,19 -20,33 -39,30 -19,-2 -33,-20 -30,-39 2,-20 20,-33 39,-31 19,3 33,21 30,40z"/>
   <path id="Stroke-150" class="fil0 str9" d="M4741 12875l3 111c0,0 -8,59 -74,31"/>
   <path id="Fill-151" class="fil7" d="M4434 12682c2,1 4,1 7,1l159 2c17,0 32,-14 32,-31 1,-18 -13,-33 -31,-33l-160 -2c-17,-1 -32,14 -32,31 0,16 10,29 25,32z"/>
   <path id="Fill-152" class="fil7" d="M4805 12757c2,1 4,1 6,1l89 1c17,1 30,-14 30,-31 1,-18 -13,-33 -29,-33l-90 -1c-16,-1 -29,14 -30,31 0,16 10,29 24,32z"/>
   <path id="Stroke-153" class="fil0 str9" d="M4483 13029c0,0 123,131 298,21"/>
   <path id="Fill-154" class="fil10" d="M4148 12838c0,0 237,-126 223,-564l-217 -32 -3 63 -3 533z"/>
   <path id="Fill-155" class="fil9" d="M4222 12826c-3,72 -65,127 -137,124 -71,-4 -127,-65 -123,-137 4,-72 65,-127 137,-124 72,4 127,65 123,137z"/>
   <path id="Fill-156" class="fil10" d="M4253 12488l165 -79c0,0 378,185 545,35 180,-162 170,-512 -161,-567 -288,-47 -521,134 -564,300 -43,165 15,311 15,311z"/>
   <polygon id="Fill-157" class="fil2" points="3552,16005 3556,16489 5078,16489 5079,16005 "/>
   <polygon id="Fill-158" class="fil9" points="3775,20699 4185,20699 4185,20103 3775,20103 "/>
   <path id="Fill-159" class="fil10" d="M4185 20625l-540 0 -395 181c-89,44 -145,132 -145,228l1080 0 0 -409z"/>
   <path id="Fill-160" class="fil10" d="M3664 20654l107 -176c0,0 167,-37 153,184l-260 -8z"/>
   <polygon id="Fill-161" class="fil2" points="4409,16228 4243,20215 3611,20215 3552,16228 "/>
   <polygon id="Fill-162" class="fil13" points="3515,19991 4222,19991 4212,20215 3515,20215 "/>
   <polygon id="Fill-163" class="fil9" points="4558,20699 4968,20699 4968,20103 4558,20103 "/>
   <path id="Fill-164" class="fil10" d="M4558 20625l540 0 395 181c89,44 145,132 145,228l-1080 0 0 -409z"/>
   <path id="Fill-165" class="fil10" d="M5079 20654l-107 -176c0,0 -167,-37 -153,184l260 -8z"/>
   <polygon id="Fill-166" class="fil2" points="5042,16266 5009,20215 4377,20215 4334,16330 "/>
   <polygon id="Fill-167" class="fil13" points="4334,16489 4558,16489 4362,18725 "/>
   <polygon id="Fill-168" class="fil13" points="5079,19991 4372,19991 4374,20215 5079,20215 "/>
   <line class="fil0 str10" x1="4225" y1="12772" x2="4393" y2= "12893" />
   <line class="fil0 str10" x1="4111" y1="12949" x2="4269" y2= "13052" />
   <path class="fil23 str11" d="M4415 12858l-161 226c0,0 135,78 335,87 199,8 325,-5 325,-5 0,0 82,-129 70,-204 -13,-75 -569,-104 -569,-104z"/>
   <path class="fil0 str10" d="M10936 13075l-176 148c0,0 47,149 55,162 7,12 221,-139 221,-139"/>
   <line class="fil0 str10" x1="10742" y1="13182" x2="10765" y2= "13239" />
   <line class="fil0 str10" x1="10815" y1="13385" x2="10824" y2= "13429" />
   <path class="fil23 str11" d="M10742 13182c0,0 -289,107 -395,91 -107,-17 -144,-22 -144,-22 0,0 -44,130 95,254 139,124 526,-76 526,-76l-82 -247z"/>
   <line class="fil0 str10" x1="16890" y1="15044" x2="16639" y2= "15072" />
   <line class="fil0 str10" x1="16998" y1="15184" x2="16703" y2= "15335" />
   <path class="fil23 str11" d="M16703 15377l-72 -345c-341,25 -195,25 -341,25 -146,0 -146,0 -146,0 0,0 -46,246 103,356 150,110 456,-36 456,-36z"/>
   <g style="clip-path:url(#id0)">
    <path class="fil0 str12" d="M10443 14824c21,0 37,-5 37,-11 0,-6 -16,-11 -37,-11 -20,0 -36,5 -36,11 0,6 16,11 36,11l0 0z"/>
   </g>
   <rect class="fil0" x="10398" y="14796" width="204" height="108"/>
   <g>
    <path class="fil24 str13" style="mask:url(#id1)" d="M6810 11603c61,0 109,44 109,99 0,55 -48,99 -109,99 -60,0 -108,-44 -108,-99 0,-55 48,-99 108,-99z"/>
    <path class="fil25 str10" d="M6815 11652l64 19c0,0 -39,37 -51,15 -11,-21 -13,-34 -13,-34z"/>
    <path class="fil0 str11" d="M6862 11698c5,9 7,20 7,20l13 -17 1 21 10 -19 1 28c0,0 16,-25 16,-26 0,-1 1,25 1,25 0,0 12,-15 13,-16 1,-1 1,20 -4,24 -18,20 -8,4 1,-13l-13 13 -2 -17 -8 14 -3 2 -3 0 -3 -19 -9 16 -1 -23 -16 16c0,0 0,-20 -2,-21 -1,-1 -9,15 -9,15l-3 8 5 4 6 5"/>
   </g>
   <g>
    <path class="fil24 str13" style="mask:url(#id3)" d="M6613 11718c167,0 303,123 303,275 0,152 -136,275 -303,275 -167,0 -302,-123 -302,-275 0,-152 135,-275 302,-275z"/>
    <path class="fil25 str10" d="M6627 11854l178 51c0,0 -110,103 -142,44 -32,-60 -36,-95 -36,-95z"/>
    <path class="fil0 str11" d="M6758 11982c11,25 18,56 18,56l37 -48 2 58 27 -53 3 78c0,0 45,-70 45,-72 1,-3 3,68 3,68 0,0 33,-41 36,-43 3,-2 2,54 -10,67 -51,56 -23,12 1,-36l-37 35 -5 -48 -21 40 -8 5 -8 2 -9 -54 -25 43 -4 -62 -44 45c0,0 0,-58 -4,-60 -5,-2 -26,44 -26,44l-8 21 15 12 16 11"/>
   </g>
   <g style="clip-path:url(#id5)">
    <image x="10380" y="14739" width="149" height="128" xlink:href="Corona_Images\Corona_ImgID1.png"/>
    <path class="fil26 str14" d="M10456 14770l43 12c0,0 -27,23 -35,10 -7,-14 -8,-22 -8,-22l0 0z"/>
    <path id="1" class="fil0 str15" d="M10487 14799c3,6 5,13 5,13l9 -11 0 13 7 -12 0 18c0,0 11,-16 11,-17 1,0 1,16 1,16 0,0 8,-9 9,-10 0,0 0,12 -3,16 -12,12 -5,2 0,-9l-8 8 -2 -11 -5 9 -1 2 -3 0 -2 -12 -6 9 -1 -13 -11 10c0,0 1,-14 0,-14 -1,0 -7,10 -7,10l-2 5 4 2 4 3"/>
   </g>
   <rect class="fil0" x="10366" y="14726" width="268" height="247"/>
   <g>
    <path class="fil24 str13" style="mask:url(#id6)" d="M6971 11730c60,0 109,45 109,99 0,55 -49,99 -109,99 -60,0 -109,-44 -109,-99 0,-54 49,-99 109,-99z"/>
    <path class="fil25 str10" d="M6976 11779l64 19c0,0 -40,37 -51,16 -11,-22 -13,-35 -13,-35z"/>
    <path class="fil0 str11" d="M7023 11825c4,9 7,21 7,21l13 -18 1 21 10 -19 1 28c0,0 16,-25 16,-26 0,-1 1,25 1,25 0,0 12,-15 13,-16 1,0 0,20 -4,24 -18,21 -8,5 0,-13l-13 13 -2 -17 -7 14 -3 2 -3 1 -3 -20 -9 16 -2 -22 -16 16c0,0 1,-21 -1,-22 -2,-1 -9,16 -9,16l-3 7 5 5 6 4"/>
   </g>
   <g>
    <path class="fil24 str13" style="mask:url(#id8)" d="M16796 9996c358,0 648,263 648,588 0,325 -290,589 -648,589 -357,0 -647,-264 -647,-589 0,-325 290,-588 647,-588z"/>
    <path class="fil25 str10" d="M16826 10287l381 110c0,0 -237,220 -305,93 -67,-127 -76,-203 -76,-203z"/>
    <path class="fil0 str11" d="M17105 10561c25,54 40,120 40,120l78 -102 4 124 60 -115 5 168c0,0 95,-149 97,-155 2,-5 6,147 6,147 0,0 71,-90 77,-93 7,-4 4,116 -21,144 -109,120 -49,24 1,-78l-78 75 -11 -102 -46 84 -16 12 -17 4 -19 -116 -55 93 -8 -132 -94 96c0,0 0,-125 -9,-129 -9,-3 -56,93 -56,93l-17 46 32 25 35 25"/>
   </g>
  </g>
 </g>
</svg>
