<?xml version="1.0" encoding="UTF-8"?>
<!DOCTYPE svg PUBLIC "-//W3C//DTD SVG 1.1//EN" "http://www.w3.org/Graphics/SVG/1.1/DTD/svg11.dtd">
<!-- Creator: CorelDRAW X7 -->
<svg xmlns="http://www.w3.org/2000/svg" xml:space="preserve" width="297mm" height="210mm" version="1.1" style="shape-rendering:geometricPrecision; text-rendering:geometricPrecision; image-rendering:optimizeQuality; fill-rule:evenodd; clip-rule:evenodd"
viewBox="0 0 29700 21000"
 xmlns:xlink="http://www.w3.org/1999/xlink">
 <defs>
  <style type="text/css">
   <![CDATA[
    .str6 {stroke:white;stroke-width:10.4}
    .str4 {stroke:#E2B3B3;stroke-width:12.96}
    .str1 {stroke:#E2B3B3;stroke-width:8.02}
    .str3 {stroke:white;stroke-width:11.46}
    .str0 {stroke:#E2B3B3;stroke-width:11.72}
    .str2 {stroke:#E2B3B3;stroke-width:12.09}
    .str11 {stroke:#FEFEFE;stroke-width:20}
    .str10 {stroke:#332C2B;stroke-width:20}
    .str13 {stroke:#F08519;stroke-width:20}
    .str5 {stroke:white;stroke-width:12.65}
    .str9 {stroke:#C3707A;stroke-width:10.42;stroke-linecap:round;stroke-linejoin:round}
    .str8 {stroke:#8C453A;stroke-width:10.56;stroke-linecap:round;stroke-linejoin:round}
    .str7 {stroke:#C3707A;stroke-width:10.64;stroke-linecap:round;stroke-linejoin:round}
    .str12 {stroke:#231915;stroke-width:6.23}
    .str14 {stroke:#231915;stroke-width:9.24}
    .str15 {stroke:#FEFEFE;stroke-width:9.24}
    .fil0 {fill:none}
    .fil23 {fill:#FEFEFE}
    .fil24 {fill:#F08519}
    .fil25 {fill:#E62129}
    .fil6 {fill:black}
    .fil2 {fill:#006BE4}
    .fil13 {fill:#0458AF}
    .fil22 {fill:#0A0A0A}
    .fil14 {fill:#0C0005}
    .fil19 {fill:#111012}
    .fil5 {fill:#13CA92}
    .fil17 {fill:#171223}
    .fil7 {fill:#171D21}
    .fil10 {fill:#231B22}
    .fil15 {fill:#243033}
    .fil18 {fill:#A7614E}
    .fil26 {fill:#E50012}
    .fil12 {fill:#E7ABA0}
    .fil21 {fill:#EBB023}
    .fil11 {fill:#F16532}
    .fil9 {fill:#F5A5A9}
    .fil8 {fill:#F7A7AB}
    .fil20 {fill:#F8C22D}
    .fil3 {fill:#FC7341}
    .fil1 {fill:#FDE6E1}
    .fil4 {fill:#FDFDFD}
    .fil16 {fill:white}
   ]]>
  </style>
    <clipPath id="id0">
     <rect x="14380" y="10190" width="416" height="253"/>
    </clipPath>
     <mask id="id1">
  <linearGradient id="id2" gradientUnits="userSpaceOnUse" x1="8297.18" y1="4970.58" x2="8392.38" y2="5010.22">
   <stop offset="0" style="stop-opacity:1; stop-color:white"/>
   <stop offset="1" style="stop-opacity:0; stop-color:white"/>
  </linearGradient>
      <rect style="fill:url(#id2)" x="8151" y="4813" width="388" height="355"/>
     </mask>
     <mask id="id3">
  <linearGradient id="id4" gradientUnits="userSpaceOnUse" x1="7879.04" y1="5427.23" x2="8143.62" y2="5537.39">
   <stop offset="0" style="stop-opacity:1; stop-color:white"/>
   <stop offset="1" style="stop-opacity:0; stop-color:white"/>
  </linearGradient>
      <rect style="fill:url(#id4)" x="7490" y="5007" width="1044" height="951"/>
     </mask>
    <clipPath id="id5">
     <rect x="14326" y="10072" width="524" height="489"/>
    </clipPath>
     <mask id="id6">
  <linearGradient id="id7" gradientUnits="userSpaceOnUse" x1="8569.17" y1="5185.84" x2="8664.37" y2="5225.48">
   <stop offset="0" style="stop-opacity:1; stop-color:white"/>
   <stop offset="1" style="stop-opacity:0; stop-color:white"/>
  </linearGradient>
      <rect style="fill:url(#id7)" x="8423" y="5028" width="388" height="355"/>
     </mask>
     <mask id="id8">
  <linearGradient id="id9" gradientUnits="userSpaceOnUse" x1="24957.8" y1="2981.03" x2="25524.1" y2="3216.83">
   <stop offset="0" style="stop-opacity:1; stop-color:white"/>
   <stop offset="1" style="stop-opacity:0; stop-color:white"/>
  </linearGradient>
      <rect style="fill:url(#id9)" x="24135" y="2093" width="2211" height="2012"/>
     </mask>
 </defs>
 <g id="Layer_x0020_1">
  <metadata id="CorelCorpID_0Corel-Layer"/>
  <g id="_2496837474000">
   <path id="Stroke-1" class="fil0 str0" d="M24632 16305l-18828 0c-249,0 -451,-201 -451,-450l0 -11581c0,-249 202,-450 451,-450l18828 0c250,0 451,201 451,450l0 11581c0,249 -201,450 -451,450z"/>
   <path id="Fill-3" class="fil1" d="M25704 15360l-18829 0c-249,0 -451,-202 -451,-450l0 -11582c0,-248 202,-450 451,-450l18829 0c249,0 451,202 451,450l0 11582c0,248 -202,450 -451,450z"/>
   <path id="Fill-5" class="fil2" d="M8252 3666c0,122 -98,221 -220,221 -122,0 -221,-99 -221,-221 0,-122 99,-220 221,-220 122,0 220,98 220,220z"/>
   <path id="Fill-7" class="fil3" d="M9009 3666c0,122 -99,221 -221,221 -122,0 -220,-99 -220,-221 0,-122 98,-220 220,-220 122,0 221,98 221,220z"/>
   <path id="Stroke-9" class="fil0 str1" d="M9828 3666c0,122 -98,221 -220,221 -122,0 -221,-99 -221,-221 0,-122 99,-220 221,-220 122,0 220,98 220,220z"/>
   <path id="Stroke-11" class="fil0 str2" d="M23101 13721l-5933 0c-119,0 -216,-97 -216,-217l0 -3286c0,-120 97,-217 216,-217l5934 0c119,0 216,97 216,217l0 3286c0,120 -97,217 -217,217z"/>
   <path id="Stroke-13" class="fil0 str2" d="M14591 13658l-6311 0c-119,0 -217,-98 -217,-219l0 -7631c0,-121 98,-219 217,-219l6311 0c120,0 217,98 217,219l0 7631c0,121 -97,219 -217,219z"/>
   <path id="Stroke-15" class="fil0 str3" d="M13041 10569l-3652 0c-105,0 -191,-85 -191,-190l0 -3403c0,-105 86,-189 191,-189l3652 0c106,0 191,84 191,189l0 3403c0,105 -85,190 -191,190z"/>
   <line id="Stroke-17" class="fil0 str3" x1="9135" y1="11262" x2="13106" y2= "11262" />
   <line id="Stroke-19" class="fil0 str3" x1="9135" y1="11956" x2="11215" y2= "11956" />
   <line id="Stroke-21" class="fil0 str3" x1="9135" y1="12649" x2="12035" y2= "12649" />
   <path id="Stroke-23" class="fil0 str3" d="M21408 8867l-4122 0c-115,0 -208,-94 -208,-210l0 -4119c0,-116 93,-210 208,-210l4122 0c115,0 208,94 208,210l0 4119c0,116 -93,210 -208,210z"/>
   <path id="Stroke-25" class="fil0 str3" d="M20706 7543l-2781 0c-120,0 -217,-85 -217,-189 0,-104 97,-189 217,-189l2781 0c120,0 217,85 217,189 0,104 -97,189 -217,189z"/>
   <path id="Stroke-27" class="fil0 str3" d="M20706 6093l-2781 0c-120,0 -217,-85 -217,-189 0,-104 97,-189 217,-189l2781 0c120,0 217,85 217,189 0,104 -97,189 -217,189z"/>
   <path id="Fill-29" class="fil2" d="M18843 5936c0,191 -156,346 -347,346 -191,0 -347,-155 -347,-346 0,-192 156,-347 347,-347 191,0 347,155 347,347z"/>
   <path id="Stroke-31" class="fil0 str0" d="M2257 4076l-1436 0c-73,0 -133,56 -133,125l0 752c0,69 60,125 133,125l585 0 492 511 0 -492 362 -7c72,-1 130,-57 130,-125l0 -764c0,-69 -59,-125 -133,-125z"/>
   <path id="Stroke-33" class="fil0 str4" d="M373 14981c0,209 -169,379 -378,379 -209,0 -379,-170 -379,-379 0,-209 170,-378 379,-378 209,0 378,169 378,378z"/>
   <path id="Stroke-35" class="fil0 str4" d="M29559 10380c0,174 -141,315 -315,315 -174,0 -315,-141 -315,-315 0,-174 141,-315 315,-315 174,0 315,141 315,315z"/>
   <polygon id="Stroke-37" class="fil0 str4" points="15628,483 16258,483 16258,-147 15628,-147 "/>
   <path id="Fill-39" class="fil2" d="M19954 11262l1725 0 0 -1727c0,-125 -102,-227 -229,-227l-1496 0c-126,0 -229,102 -229,227l0 1500c0,126 103,227 229,227z"/>
   <polygon id="Fill-40" class="fil2" points="21742,10947 21742,11640 21112,10947 "/>
   <path id="Fill-41" class="fil4" d="M20488 10629c180,3 362,6 527,-5 53,-3 98,-80 34,-105 27,-13 54,-25 66,-53 11,-26 -2,-62 -32,-69 63,15 87,-77 38,-107 26,-20 47,-47 53,-78 5,-31 -8,-66 -38,-81 -19,-9 -43,-10 -65,-10 -75,-1 -149,-1 -224,-2 20,-108 26,-226 -33,-322 -18,-28 -66,-63 -104,-41 -36,21 -26,72 -24,105 7,135 -76,271 -204,334 0,0 8,288 6,434z"/>
   <polygon id="Fill-42" class="fil4" points="20293,10632 20545,10632 20545,10254 20293,10254 "/>
   <path id="Fill-43" class="fil5" d="M10097 7795l-2264 0c-256,0 -463,-214 -463,-478l0 -2363c0,-206 162,-374 362,-374l2365 0c200,0 362,168 362,374l0 2468c0,206 -162,373 -362,373z"/>
   <polyline id="Stroke-44" class="fil0 str5" points="7685,6787 8564,6089 8884,6442 9765,5778 "/>
   <polyline id="Stroke-45" class="fil0 str5" points="9639,5715 9765,5764 9747,5967 "/>
   <path id="Fill-46" class="fil5" d="M27896 7102l-5058 0c-152,0 -276,-124 -276,-277l0 -4993c0,-153 124,-277 276,-277l5058 0c152,0 276,124 276,277l0 4993c0,153 -124,277 -276,277z"/>
   <line id="Stroke-47" class="fil0 str3" x1="24390" y1="4706" x2="25588" y2= "4706" />
   <line id="Stroke-48" class="fil0 str3" x1="23633" y1="5337" x2="27227" y2= "5337" />
   <line id="Stroke-49" class="fil0 str3" x1="23633" y1="6030" x2="24705" y2= "6030" />
   <line id="Stroke-50" class="fil0 str3" x1="24894" y1="6030" x2="25651" y2= "6030" />
   <line id="Stroke-51" class="fil0 str3" x1="23633" y1="4706" x2="24075" y2= "4706" />
   <path id="Stroke-52" class="fil0 str3" d="M25020 2766l0 729c0,59 67,96 120,66l660 -364c53,-30 53,-103 0,-133l-660 -364c-53,-30 -120,7 -120,66z"/>
   <path id="Stroke-53" class="fil0 str6" d="M26281 3099c0,574 -466,1040 -1040,1040 -575,0 -1040,-466 -1040,-1040 0,-574 465,-1040 1040,-1040 574,0 1040,466 1040,1040z"/>
   <path id="Fill-54" class="fil6" d="M25236 17818l-2134 0c-124,0 -225,-99 -225,-221 0,-121 101,-220 225,-220l2134 0c125,0 226,99 226,220 0,122 -101,221 -226,221z"/>
   <polygon id="Fill-55" class="fil7" points="23823,20529 26722,20529 26722,20276 23823,20276 "/>
   <path id="Fill-56" class="fil7" d="M24072 20524c20,120 -62,234 -182,254 -120,20 -234,-62 -254,-182 -19,-120 62,-234 182,-253 120,-20 234,61 254,181z"/>
   <polygon id="Fill-57" class="fil7" points="25083,20529 25399,20529 25399,17629 25083,17629 "/>
   <path id="Fill-58" class="fil7" d="M26908 20524c20,120 -61,234 -181,254 -120,20 -234,-62 -254,-182 -20,-120 62,-234 182,-253 120,-20 233,61 253,181z"/>
   <path id="Fill-59" class="fil7" d="M26695 17755l-2549 0c-174,0 -299,-168 -250,-336l1217 -4141c33,-111 135,-188 250,-188l2549 0c174,0 299,168 249,336l-1217 4141c-33,112 -134,188 -249,188z"/>
   <path id="Fill-60" class="fil8" d="M26335 17755l-2192 0c-172,0 -295,-168 -247,-336l1202 -4141c32,-111 133,-188 247,-188l2192 0c171,0 295,168 246,336l-1202 4141c-32,112 -132,188 -246,188z"/>
   <path id="Fill-61" class="fil7" d="M26751 17818l-2642 0c-123,0 -223,-99 -223,-221 0,-121 100,-220 223,-220l2642 0c124,0 223,99 223,220 0,122 -99,221 -223,221z"/>
   <polygon id="Fill-62" class="fil9" points="23444,19414 22843,19772 22373,18933 22975,18574 "/>
   <path id="Fill-63" class="fil10" d="M23414 19268l-759 449 -402 600c-88,140 -93,319 -11,464l1518 -899 -346 -614z"/>
   <path id="Fill-64" class="fil10" d="M22625 19772l33 -315c0,0 215,-193 345,97l-378 218z"/>
   <path id="Fill-65" class="fil11" d="M22191 15301c0,0 -1859,-93 -1700,606 160,700 1368,3550 1368,3550l1555 -394 -1176 -2154 2278 -843 -2325 -765z"/>
   <polygon id="Fill-66" class="fil9" points="21805,20213 22499,20213 22499,19205 21805,19205 "/>
   <path id="Fill-67" class="fil10" d="M22562 20087l-914 0 -668 306c-151,75 -246,225 -246,388l1828 0 0 -694z"/>
   <path id="Fill-68" class="fil10" d="M21553 20137l181 -298c0,0 284,-63 259,311l-440 -13z"/>
   <path id="Fill-69" class="fil3" d="M23951 15738l-2173 33c-188,3 -362,108 -440,278 -62,133 -107,329 -99,617 23,801 260,2791 260,2791l1304 0 -175 -2104 2393 -29c491,-6 950,-278 1158,-721 87,-185 131,-395 81,-616l-2309 -249z"/>
   <path id="Fill-70" class="fil12" d="M21742 15279c1,234 -152,269 -379,270 -226,0 -440,-34 -440,-269 0,-234 183,-424 409,-425 226,0 410,189 410,424z"/>
   <path id="Fill-71" class="fil12" d="M22032 15485l-452 1c-119,0 -216,-99 -216,-220 0,-121 97,-220 215,-221l452 -1c119,0 215,99 216,220 0,121 -97,220 -215,221z"/>
   <path id="Fill-72" class="fil13" d="M21963 15612l-158 -775 1822 -427 354 -2000c39,-207 282,-426 489,-387 206,39 395,279 356,486l-227 2608c-28,147 -139,263 -284,299l-2352 196z"/>
   <path id="Fill-73" class="fil2" d="M26026 12008c474,21 682,521 696,855l-457 3190c-1973,-17 -2253,-248 -2253,-248l0 -3216c24,-309 163,-600 510,-630l709 -66 795 115z"/>
   <path id="Fill-74" class="fil9" d="M24679 11962l520 -69 578 82c0,0 -50,425 -777,350 -110,-11 -215,-47 -290,-107 -74,-59 -92,-139 -31,-256z"/>
   <polygon id="Fill-75" class="fil13" points="24516,14855 25529,14484 25645,13405 25714,14652 "/>
   <path id="Fill-76" class="fil13" d="M26344 15423c-7,-1 -53,308 -53,308 0,0 -2210,169 -2531,-18l2584 -290z"/>
   <path id="Fill-77" class="fil12" d="M23632 15502c16,233 -135,279 -361,295 -225,16 -441,-4 -456,-237 -15,-233 155,-435 381,-452 225,-16 421,161 436,394z"/>
   <path id="Fill-78" class="fil12" d="M23937 15708l-452 29c-118,8 -221,-78 -229,-191 -8,-113 82,-212 200,-219l452 -30c118,-8 221,78 229,191 8,113 -82,212 -200,220z"/>
   <path id="Fill-79" class="fil2" d="M23909 15801l-212 -883 2079 -343 -103 -1745c-85,-388 277,-726 556,-681 267,-4 487,200 539,595l143 2384c-18,149 -123,273 -268,319l-2734 354z"/>
   <path id="Fill-80" class="fil14" d="M20282 13154l2329 220c77,7 138,67 147,143l244 2102c12,103 -74,191 -177,181l-2368 -223c-78,-8 -139,-69 -147,-147l-206 -2098c-10,-102 76,-188 178,-178z"/>
   <path id="Fill-81" class="fil15" d="M20156 13154l2329 220c77,7 138,67 147,143l244 2102c12,103 -74,191 -177,181l-2368 -223c-78,-8 -139,-69 -147,-147l-206 -2098c-10,-102 76,-188 178,-178z"/>
   <path id="Fill-82" class="fil14" d="M22929 15675l1631 145c50,4 86,46 82,93 -5,47 -49,81 -99,77l-1729 -148 115 -167z"/>
   <path id="Fill-83" class="fil16" d="M21426 14403c-11,122 -119,211 -240,199 -121,-11 -210,-119 -199,-240 11,-122 119,-211 240,-199 122,11 211,119 199,240z"/>
   <path id="Fill-84" class="fil14" d="M24332 9056c242,-11 450,160 486,390 56,-41 125,-66 199,-70 201,-9 367,77 416,274 1156,-124 72,1549 72,1549l-88 -645 -32 -722c-42,144 -173,252 -333,260 -168,8 -315,-98 -364,-249 -80,79 -188,131 -311,136 -259,12 -478,-184 -491,-439 -12,-255 188,-471 446,-484z"/>
   <path id="Fill-85" class="fil9" d="M25588 10632l-24 1279c-5,227 -179,411 -400,422 -237,12 -436,-180 -441,-423l-18 -1074 883 -204z"/>
   <path id="Fill-86" class="fil14" d="M25525 10947c0,0 0,780 -751,686l-6 -360 757 -326z"/>
   <path id="Fill-87" class="fil9" d="M24849 11514l26 0c393,1 712,-318 712,-712l1 -804c0,-102 -83,-185 -184,-185l-937 -1c-181,0 -329,148 -329,330l0 659c0,394 318,713 711,713z"/>
   <path id="Fill-88" class="fil14" d="M24835 10510c3,33 31,57 64,55 32,-3 57,-31 54,-64 -3,-32 -31,-57 -63,-54 -33,2 -57,31 -55,63z"/>
   <path id="Fill-89" class="fil14" d="M24268 10510c3,33 31,57 63,55 33,-3 57,-31 55,-64 -3,-32 -31,-57 -64,-54 -32,3 -56,31 -54,63z"/>
   <path id="Stroke-90" class="fil0 str7" d="M24471 10569l-18 87c0,0 10,55 126,34"/>
   <path id="Fill-91" class="fil14" d="M25038 10312c-4,1 -7,1 -11,1l-269 -10c-30,-2 -54,-26 -53,-56 1,-30 26,-53 57,-52l269 10c30,1 53,26 52,56 -1,26 -20,47 -45,51z"/>
   <path id="Fill-92" class="fil14" d="M24411 10310c-3,1 -7,1 -10,1l-152 -7c-28,-1 -49,-26 -48,-55 1,-30 24,-54 52,-52l152 6c27,1 49,26 48,56 -1,26 -19,47 -42,51z"/>
   <path id="Stroke-93" class="fil0 str7" d="M24390 10985c0,0 167,108 378,8"/>
   <path id="Fill-94" class="fil14" d="M25505 10695c0,0 -409,-95 -331,-731l-1036 -19 25 -259 1149 16c164,3 291,148 274,315l-81 678z"/>
   <path id="Fill-95" class="fil9" d="M25399 10663c-1,122 98,221 220,221 122,0 221,-99 221,-220 0,-122 -99,-221 -221,-221 -122,0 -220,98 -220,220z"/>
   <path id="Fill-96" class="fil17" d="M16245 6458c-232,232 -569,270 -753,86 -184,-184 -145,-521 86,-753 232,-231 569,-270 753,-86 184,184 145,521 -86,753z"/>
   <path id="Fill-97" class="fil3" d="M15880 6503c0,191 -155,347 -347,347 -191,0 -346,-156 -346,-347 0,-192 155,-347 346,-347 192,0 347,155 347,347z"/>
   <path id="Fill-98" class="fil17" d="M13927 7133c21,530 535,998 1084,977 548,-21 1016,-511 994,-1042 -21,-530 -476,-1002 -1099,-897 -541,92 -1001,431 -979,962z"/>
   <path id="Fill-99" class="fil18" d="M15375 8624l-43 -1144 -713 31 44 1144c8,195 175,346 372,338 196,-9 349,-174 340,-369z"/>
   <path id="Fill-100" class="fil17" d="M15439 7543c0,0 -40,870 -676,883l-18 -434 694 -449z"/>
   <path id="Fill-101" class="fil18" d="M14817 8236l0 0c-392,15 -722,-202 -738,-581l-27 -653c-11,-280 293,-587 464,-594l636 147c170,-7 316,123 323,288l26 650c16,380 -353,730 -684,743z"/>
   <path id="Fill-102" class="fil10" d="M14752 7423c4,31 32,53 63,50 30,-4 53,-31 49,-62 -3,-31 -31,-54 -62,-50 -31,3 -53,31 -50,62z"/>
   <path id="Fill-103" class="fil10" d="M14185 7423c3,31 31,53 62,50 31,-4 53,-31 50,-62 -4,-31 -31,-53 -62,-50 -31,4 -53,31 -50,62z"/>
   <path id="Stroke-104" class="fil0 str8" d="M14438 7480l-8 187c0,0 12,97 126,54"/>
   <path id="Fill-105" class="fil10" d="M14954 7216c-4,0 -7,1 -11,1l-269 -1c-31,0 -55,-23 -55,-52 0,-28 25,-51 55,-51l269 1c30,0 54,23 54,51 0,25 -18,46 -43,51z"/>
   <path id="Fill-106" class="fil10" d="M14327 7216c-3,0 -7,1 -10,1l-152 -1c-28,0 -50,-23 -50,-52 0,-28 22,-51 50,-51l152 0c28,1 50,24 50,52 0,25 -17,46 -40,51z"/>
   <path id="Fill-107" class="fil16" d="M14367 7795l378 0c0,0 -35,139 -228,125 -131,-9 -150,-125 -150,-125z"/>
   <path id="Fill-108" class="fil17" d="M15187 6926c0,0 7,395 228,428l150 -441 -378 13z"/>
   <path id="Fill-109" class="fil18" d="M15754 7377c5,121 -90,224 -212,229 -122,5 -224,-90 -229,-212 -5,-122 90,-224 211,-229 122,-5 225,90 230,212z"/>
   <path id="Fill-110" class="fil17" d="M15181 6158c0,0 -1331,-78 -1318,818l1828 0 -247 -609 -263 -209z"/>
   <polygon id="Fill-111" class="fil18" points="15643,20150 15124,20150 15244,18259 15880,18259 "/>
   <path id="Fill-112" class="fil10" d="M15035 20087l913 0 641 306c145,75 237,225 237,388l-1829 -22 38 -672z"/>
   <path id="Fill-113" class="fil10" d="M15943 20137l-181 -298c0,0 -283,-63 -259,311l440 -13z"/>
   <path id="Fill-114" class="fil10" d="M16014 11073c0,0 1091,765 638,3317l-638 4311 -954 0 56 -6819 -56 -809 954 0z"/>
   <polygon id="Fill-115" class="fil18" points="12350,20150 12886,20150 13422,18259 12766,18259 "/>
   <path id="Fill-116" class="fil10" d="M12943 20087l-913 0 -641 306c-146,75 -237,225 -237,388l1828 -22 -37 -672z"/>
   <path id="Fill-117" class="fil10" d="M11909 20137l181 -298c0,0 283,-63 258,311l-439 -13z"/>
   <path id="Fill-118" class="fil10" d="M14239 11073c0,0 -478,435 -829,2349 -352,1913 -997,5209 -997,5209l898 70 1935 -5950 130 -1678 -1137 0z"/>
   <polygon id="Fill-119" class="fil19" points="15187,13373 14690,12712 14493,15234 "/>
   <path id="Fill-120" class="fil18" d="M12980 10064c32,2 100,-8 131,-15l1887 -416c268,-42 661,-453 546,-710 -84,-188 -286,-286 -478,-230l-1929 681 -157 690z"/>
   <path id="Fill-121" class="fil18" d="M13125 9419l-1732 -1183 -241 307 1427 1416c249,217 719,80 824,-234 72,-217 -74,-203 -278,-306z"/>
   <path id="Fill-122" class="fil18" d="M11438 8320c-81,193 -303,283 -496,202 -192,-81 -282,-303 -201,-495 81,-193 302,-283 495,-202 192,81 283,303 202,495z"/>
   <path id="Fill-123" class="fil18" d="M11152 7778l-287 -221c-23,-20 -59,-18 -78,5 -17,20 -17,49 0,69l266 290 99 -143z"/>
   <path id="Fill-124" class="fil20" d="M14304 8741c-370,86 -882,316 -882,316l572 818 197 -52 113 -1082z"/>
   <path id="Fill-125" class="fil21" d="M13989 9812c0,0 -61,-314 0,-693l-315 256 315 437z"/>
   <path id="Fill-126" class="fil18" d="M17659 11262l175 -318 -882 -1458c-114,-196 -636,-552 -793,-388 -114,120 -119,490 -18,622l1083 1435 435 107z"/>
   <path id="Fill-127" class="fil18" d="M17278 11242l495 2037 376 -41 -236 -2090c-4,-237 -242,-394 -453,-299 -147,67 -224,234 -182,393z"/>
   <path id="Fill-128" class="fil20" d="M15871 8741c0,0 615,91 1018,635l-879 878c0,0 -567,-555 -189,-1081l50 -432z"/>
   <path id="Fill-129" class="fil18" d="M17663 13234c164,-129 402,-101 531,64 130,164 101,401 -63,531 -164,129 -402,101 -531,-63 -129,-165 -101,-402 63,-532z"/>
   <path id="Fill-130" class="fil20" d="M15018 8552c0,0 -430,-32 -1069,335 0,0 -128,1091 213,1494l49 692 1723 -8c0,0 96,-1234 450,-1546l-118 -614c0,0 -525,-366 -1248,-353z"/>
   <path id="Fill-131" class="fil18" d="M14367 8759c0,0 653,-302 1513,-32l-292 154c-373,197 -889,121 -1221,-122z"/>
   <path id="Fill-132" class="fil21" d="M16069 10030l-48 52c0,0 -199,-157 -330,-396l233 1198 145 -854z"/>
   <path id="Fill-133" class="fil9" d="M5425 13090c0,0 386,509 185,1125 -202,615 -761,-45 -761,-45l576 -1080z"/>
   <path id="Fill-134" class="fil21" d="M5583 8614c0,0 -47,-194 -482,-378l307 2384 29 -145 -235 2994 689 -41c146,-3611 -308,-4814 -308,-4814z"/>
   <path id="Fill-135" class="fil20" d="M4226 7921c0,0 -736,31 -1282,368l-113 3982 2585 0 0 -3519c0,-217 -58,-399 -135,-438 -173,-87 -633,-352 -1055,-393z"/>
   <polygon id="Fill-136" class="fil21" points="2831,10210 3210,9686 3210,10758 2831,10683 "/>
   <path id="Fill-137" class="fil21" d="M2831 11700c0,7 699,0 699,0l0 -152 151 0c0,0 732,155 978,-471l-593 -130 -1214 262 -21 491z"/>
   <path id="Fill-138" class="fil20" d="M3777 8923c0,0 -682,938 -1400,2031 -80,122 -274,186 -417,182 -323,-8 -466,-366 -349,-661 0,0 827,-1807 1341,-2238 18,-15 825,686 825,686z"/>
   <path id="Fill-139" class="fil22" d="M4512 10182l-643 824c-64,81 -18,199 85,218l519 99c52,10 106,-10 138,-51l649 -823c64,-81 18,-200 -84,-219l-525 -100c-53,-10 -106,10 -139,52z"/>
   <polygon id="Fill-140" class="fil9" points="3714,10947 2875,10958 2705,11325 3647,11282 "/>
   <path id="Fill-141" class="fil9" d="M3650 10936l515 -355c26,-18 61,-16 85,5 26,24 29,64 7,91l-113 135 388 41c50,6 79,59 57,103l-59 116c-52,103 -150,178 -265,202 -200,42 -498,95 -677,-10l62 -328z"/>
   <path id="Fill-142" class="fil20" d="M1617 10380c0,0 -313,509 -96,799 219,291 1166,455 1970,381l34 -776 -942 -183 -966 -221z"/>
   <path id="Fill-143" class="fil9" d="M3866 6661l-88 1251c-16,222 154,417 388,447 250,31 479,-139 505,-376l114 -1047 -919 -275z"/>
   <path id="Fill-144" class="fil10" d="M3922 7102c0,0 -201,879 691,882l46 -467 -737 -415z"/>
   <path id="Fill-145" class="fil10" d="M4218 5652c0,0 -517,85 -504,449 13,364 58,749 58,749l283 -596 163 -602z"/>
   <path id="Fill-146" class="fil10" d="M5225 6030c0,0 377,568 -164,820l-90 -50c0,0 -163,-441 51,-675l203 -95z"/>
   <path id="Fill-147" class="fil9" d="M4493 7794l-27 -1c-400,-21 -709,-362 -688,-764l41 -820c6,-104 94,-184 197,-179l955 49c185,9 328,167 318,353l-34 672c-20,402 -361,710 -762,690z"/>
   <path id="Fill-148" class="fil7" d="M4592 6857c-4,33 -34,56 -66,52 -33,-5 -56,-34 -52,-67 5,-33 34,-56 67,-51 33,4 55,34 51,66z"/>
   <path id="Fill-149" class="fil7" d="M5034 6920c-5,33 -34,56 -67,52 -33,-5 -56,-34 -51,-67 4,-32 34,-56 66,-51 33,4 56,34 52,66z"/>
   <path id="Stroke-150" class="fil0 str9" d="M4843 6976l6 187c0,0 -14,99 -127,53"/>
   <path id="Fill-151" class="fil7" d="M4324 6649c3,1 7,1 11,1l269 4c30,0 55,-24 55,-54 1,-30 -23,-54 -53,-55l-270 -4c-30,0 -54,24 -55,54 0,26 18,48 43,54z"/>
   <path id="Fill-152" class="fil7" d="M4951 6776c3,0 7,1 10,1l152 2c28,1 50,-23 51,-53 0,-31 -22,-55 -50,-56l-151 -2c-28,0 -51,24 -51,54 -1,26 16,48 39,54z"/>
   <path id="Stroke-153" class="fil0 str9" d="M4407 7236c0,0 207,221 505,35"/>
   <path id="Fill-154" class="fil10" d="M3840 6913c0,0 400,-215 377,-955l-366 -54 -6 107 -5 902z"/>
   <path id="Fill-155" class="fil9" d="M3966 6892c-7,122 -110,216 -232,210 -121,-7 -215,-110 -209,-232 6,-122 110,-215 232,-209 121,6 215,110 209,231z"/>
   <path id="Fill-156" class="fil10" d="M4018 6321l279 -135c0,0 639,314 921,60 305,-274 289,-866 -272,-959 -487,-81 -880,226 -953,506 -73,280 25,528 25,528z"/>
   <polygon id="Fill-157" class="fil2" points="2831,12271 2838,13090 5413,13090 5416,12271 "/>
   <polygon id="Fill-158" class="fil9" points="3210,20213 3903,20213 3903,19205 3210,19205 "/>
   <path id="Fill-159" class="fil10" d="M3903 20087l-914 0 -668 307c-151,74 -246,223 -246,387l1828 0 0 -694z"/>
   <path id="Fill-160" class="fil10" d="M3020 20137l181 -298c0,0 284,-63 259,311l-440 -13z"/>
   <polygon id="Fill-161" class="fil2" points="4281,12649 4001,19394 2931,19394 2831,12649 "/>
   <polygon id="Fill-162" class="fil13" points="2768,19016 3966,19016 3948,19394 2768,19394 "/>
   <polygon id="Fill-163" class="fil9" points="4533,20213 5227,20213 5227,19205 4533,19205 "/>
   <path id="Fill-164" class="fil10" d="M4533 20087l914 0 668 307c152,74 246,223 246,387l-1828 0 0 -694z"/>
   <path id="Fill-165" class="fil10" d="M5416 20137l-181 -298c0,0 -284,-63 -259,311l440 -13z"/>
   <polygon id="Fill-166" class="fil2" points="5353,12712 5297,19394 4227,19394 4155,12820 "/>
   <polygon id="Fill-167" class="fil13" points="4155,13090 4533,13090 4202,16873 "/>
   <polygon id="Fill-168" class="fil13" points="5416,19016 4218,19016 4223,19394 5416,19394 "/>
   <line class="fil0 str10" x1="3970" y1="6800" x2="4255" y2= "7005" />
   <line class="fil0 str10" x1="3778" y1="7099" x2="4044" y2= "7275" />
   <path class="fil23 str11" d="M4292 6946l-273 382c0,0 230,133 567,147 337,14 551,-8 551,-8 0,0 138,-218 117,-345 -21,-126 -962,-176 -962,-176z"/>
   <path class="fil0 str10" d="M15325 7313l-298 251c0,0 81,251 93,273 13,22 375,-234 375,-234"/>
   <line class="fil0 str10" x1="14996" y1="7495" x2="15036" y2= "7591" />
   <line class="fil0 str10" x1="15120" y1="7837" x2="15136" y2= "7912" />
   <path class="fil23 str11" d="M14996 7495c0,0 -487,181 -668,153 -180,-28 -243,-37 -243,-37 0,0 -74,220 161,430 235,209 890,-129 890,-129l-140 -417z"/>
   <line class="fil0 str10" x1="25399" y1="10645" x2="24975" y2= "10692" />
   <line class="fil0 str10" x1="25583" y1="10881" x2="25083" y2= "11137" />
   <path class="fil23 str11" d="M25083 11208l-121 -584c-577,44 -330,44 -577,44 -247,-1 -247,-1 -247,-1 0,0 -79,416 174,602 253,186 771,-61 771,-61z"/>
   <g style="clip-path:url(#id0)">
    <path class="fil0 str12" d="M14492 10273c34,0 62,-9 62,-19 0,-10 -28,-18 -62,-18 -34,0 -62,8 -62,18 0,10 28,19 62,19l0 0z"/>
   </g>
   <rect class="fil0" x="14415" y="10226" width="345" height="182"/>
   <g>
    <path class="fil24 str13" style="mask:url(#id1)" d="M8345 4823c101,0 184,75 184,167 0,93 -83,168 -184,168 -102,0 -184,-75 -184,-168 0,-92 82,-167 184,-167z"/>
    <path class="fil25 str10" d="M8353 4906l109 31c0,0 -68,63 -87,27 -19,-37 -22,-58 -22,-58z"/>
    <path class="fil0 str11" d="M8433 4984c7,15 11,34 11,34l22 -29 1 35 17 -32 2 47c0,0 27,-42 27,-44 1,-1 2,42 2,42 0,0 20,-25 22,-27 2,-1 1,34 -6,42 -31,34 -14,6 0,-23l-22 22 -3 -29 -13 24 -4 3 -5 1 -6 -33 -15 27 -3 -38 -27 27c0,0 1,-35 -2,-36 -3,-1 -16,26 -16,26l-5 13 9 7 10 7"/>
   </g>
   <g>
    <path class="fil24 str13" style="mask:url(#id3)" d="M8011 5017c283,0 512,208 512,465 0,257 -229,466 -512,466 -282,0 -511,-209 -511,-466 0,-257 229,-465 511,-465z"/>
    <path class="fil25 str10" d="M8035 5247l301 87c0,0 -187,174 -241,74 -53,-101 -60,-161 -60,-161z"/>
    <path class="fil0 str11" d="M8256 5464c19,42 31,95 31,95l62 -81 3 98 47 -91 5 133c0,0 75,-118 76,-122 1,-4 5,116 5,116 0,0 56,-71 61,-74 5,-3 3,92 -17,114 -86,95 -39,19 1,-62l-62 60 -9 -81 -36 67 -12 9 -14 3 -15 -92 -43 74 -7 -105 -74 76c0,0 0,-98 -7,-101 -8,-3 -45,73 -45,73l-13 36 26 20 27 20"/>
   </g>
   <g style="clip-path:url(#id5)">
    <image x="14384" y="10130" width="252" height="216" xlink:href="covid-19_Images\covid-19_ImgID1.png"/>
    <path class="fil26 str14" d="M14513 10181l73 20c0,0 -46,40 -59,17 -13,-23 -14,-37 -14,-37l0 0z"/>
    <path id="1" class="fil0 str15" d="M14566 10230c5,10 8,22 8,22l15 -18 1 22 11 -20 1 30c0,0 18,-27 18,-28 1,-1 1,26 1,26 0,0 14,-16 16,-17 1,0 0,21 -5,27 -20,21 -9,4 0,-14l-14 13 -3 -19 -8 16 -3 2 -4 1 -3 -21 -11 16 -2 -23 -18 17c0,0 1,-22 -1,-23 -2,-1 -11,17 -11,17l-3 8 6 4 7 5"/>
   </g>
   <rect class="fil0" x="14361" y="10108" width="454" height="418"/>
   <g>
    <path class="fil24 str13" style="mask:url(#id6)" d="M8617 5038c101,0 184,75 184,168 0,92 -83,167 -184,167 -102,0 -184,-75 -184,-167 0,-93 82,-168 184,-168z"/>
    <path class="fil25 str10" d="M8625 5121l109 31c0,0 -68,63 -87,27 -19,-36 -22,-58 -22,-58z"/>
    <path class="fil0 str11" d="M8705 5199c7,15 11,34 11,34l22 -29 1 35 17 -32 2 48c0,0 27,-43 27,-44 1,-2 2,41 2,41 0,0 20,-25 22,-26 2,-1 1,33 -6,41 -31,34 -14,7 0,-23l-22 22 -3 -29 -13 24 -4 3 -6 1 -5 -33 -15 27 -3 -38 -27 27c0,0 1,-35 -2,-36 -3,-1 -16,26 -16,26l-5 13 9 8 10 7"/>
   </g>
   <g>
    <path class="fil24 str13" style="mask:url(#id8)" d="M25241 2103c605,0 1095,446 1095,996 0,550 -490,996 -1095,996 -605,0 -1096,-446 -1096,-996 0,-550 491,-996 1096,-996z"/>
    <path class="fil25 str10" d="M25292 2596l644 186c0,0 -401,372 -516,157 -114,-214 -128,-343 -128,-343z"/>
    <path class="fil0 str11" d="M25764 3060c42,91 67,203 67,203l133 -173 6 209 101 -193 10 284c0,0 160,-253 163,-262 3,-9 10,248 10,248 0,0 120,-151 131,-158 12,-6 7,197 -36,244 -185,203 -83,42 1,-132l-131 127 -20 -173 -77 143 -26 20 -30 7 -31 -197 -94 158 -14 -224 -159 162c0,0 1,-210 -15,-217 -16,-6 -94,158 -94,158l-30 77 56 43 58 41"/>
   </g>
  </g>
 </g>
</svg>
