<?xml version="1.0" encoding="iso-8859-1"?>
<!-- Generator: Adobe Illustrator 19.0.0, SVG Export Plug-In . SVG Version: 6.00 Build 0)  -->
<svg version="1.1" id="Layer_1" xmlns="http://www.w3.org/2000/svg" xmlns:xlink="http://www.w3.org/1999/xlink" x="0px" y="0px"
	 viewBox="0 0 512 512" style="enable-background:new 0 0 512 512;" xml:space="preserve">
<circle style="fill:#FDDF6D;" cx="256.001" cy="256.001" r="245.994"/>
<g>
	<path style="fill:#F9A880;" d="M150.288,240.771c-18.268,0-33.078,14.81-33.078,33.078h66.157
		C183.365,255.581,168.556,240.771,150.288,240.771z"/>
	<path style="fill:#F9A880;" d="M438.814,236.339c-18.268,0-33.079,14.81-33.079,33.078h66.157
		C471.893,251.148,457.084,236.339,438.814,236.339z"/>
</g>
<path style="fill:#FCC56B;" d="M308.715,465.678c-135.858,0-245.993-110.134-245.993-245.993
	c0-72.584,31.443-137.816,81.444-182.842C64.527,77.562,10.007,160.414,10.007,256c0,135.858,110.134,245.993,245.993,245.993
	c63.274,0,120.962-23.898,164.549-63.149C386.996,455.999,348.987,465.678,308.715,465.678z"/>
<g>
	<path style="fill:#7F184C;" d="M246.294,189.863c-5.527,0-10.007-4.481-10.007-10.007c0-12.908-10.502-23.409-23.409-23.409
		s-23.409,10.502-23.409,23.409c0,5.527-4.481,10.007-10.007,10.007c-5.527,0-10.007-4.481-10.007-10.007
		c0-23.944,19.48-43.424,43.424-43.424s43.424,19.48,43.424,43.424C256.302,185.383,251.821,189.863,246.294,189.863z"/>
	<path style="fill:#7F184C;" d="M415.317,189.863c-5.527,0-10.007-4.481-10.007-10.007c0-12.908-10.502-23.409-23.409-23.409
		c-12.907,0-23.409,10.502-23.409,23.409c0,5.527-4.481,10.007-10.007,10.007s-10.007-4.481-10.007-10.007
		c0-23.944,19.48-43.424,43.424-43.424c23.944,0,43.424,19.48,43.424,43.424C425.324,185.383,420.844,189.863,415.317,189.863z"/>
	<path style="fill:#7F184C;" d="M300.329,397.616c-26.51,0-51-14.4-63.911-37.58c-2.69-4.829-0.955-10.924,3.872-13.613
		c4.828-2.69,10.923-0.955,13.613,3.872c9.382,16.843,27.171,27.304,46.426,27.304c18.764,0,36.756-10.568,46.954-27.58
		c2.842-4.739,8.989-6.279,13.729-3.437c4.741,2.842,6.279,8.988,3.437,13.729C350.655,383.323,326.085,397.616,300.329,397.616z"/>
</g>
<path d="M467.25,111.359c-28.582-41.668-68.349-73.705-115.002-92.647c-5.121-2.078-10.957,0.387-13.038,5.508
	c-2.079,5.121,0.387,10.957,5.508,13.038c43.005,17.461,79.669,47,106.025,85.424c26.98,39.33,41.24,85.432,41.24,133.319
	c0,130.124-105.862,235.985-235.985,235.985S20.015,386.122,20.015,256S125.876,20.015,256,20.015
	c5.527,0,10.007-4.481,10.007-10.007S261.527,0,256,0C114.84,0,0,114.84,0,256s114.84,256,256,256s256-114.84,256-256
	C512,204.053,496.526,154.037,467.25,111.359z"/>
<path d="M246.294,189.863c5.527,0,10.007-4.481,10.007-10.007c0-23.944-19.481-43.424-43.424-43.424s-43.424,19.48-43.424,43.424
	c0,5.527,4.481,10.007,10.007,10.007c5.527,0,10.007-4.481,10.007-10.007c0-12.908,10.501-23.409,23.409-23.409
	c12.908,0,23.409,10.502,23.409,23.409C236.287,185.383,240.767,189.863,246.294,189.863z"/>
<path d="M358.491,179.856c0-12.908,10.501-23.409,23.409-23.409c12.908,0,23.409,10.502,23.409,23.409
	c0,5.527,4.481,10.007,10.007,10.007s10.007-4.481,10.007-10.007c0-23.944-19.481-43.424-43.424-43.424
	c-23.943,0-43.424,19.48-43.424,43.424c0,5.527,4.481,10.007,10.007,10.007S358.491,185.383,358.491,179.856z"/>
<path d="M253.902,350.297c-2.69-4.828-8.785-6.562-13.613-3.872c-4.829,2.69-6.562,8.784-3.872,13.613
	c12.912,23.18,37.402,37.58,63.911,37.58c25.756,0,50.326-14.293,64.122-37.303c2.842-4.741,1.304-10.887-3.437-13.729
	c-4.739-2.842-10.887-1.302-13.729,3.437c-10.199,17.012-28.191,27.58-46.954,27.58
	C281.073,377.601,263.283,367.139,253.902,350.297z"/>
<circle cx="314.071" cy="17.014" r="10.007"/>
<g>
</g>
<g>
</g>
<g>
</g>
<g>
</g>
<g>
</g>
<g>
</g>
<g>
</g>
<g>
</g>
<g>
</g>
<g>
</g>
<g>
</g>
<g>
</g>
<g>
</g>
<g>
</g>
<g>
</g>
</svg>
