<?xml version="1.0" encoding="iso-8859-1"?>
<!-- Generator: Adobe Illustrator 19.0.0, SVG Export Plug-In . SVG Version: 6.00 Build 0)  -->
<svg version="1.1" id="Layer_1" xmlns="http://www.w3.org/2000/svg" xmlns:xlink="http://www.w3.org/1999/xlink" x="0px" y="0px"
	 viewBox="0 0 512 512" style="enable-background:new 0 0 512 512;" xml:space="preserve">
<circle style="fill:#FDDF6D;" cx="256.002" cy="256.001" r="245.994"/>
<path style="fill:#FCC56B;" d="M308.715,465.677c-135.858,0-245.993-110.134-245.993-245.993
	c0-72.584,31.443-137.816,81.444-182.842C64.528,77.562,10.008,160.412,10.008,256c0,135.858,110.134,245.993,245.993,245.993
	c63.274,0,120.962-23.898,164.549-63.149C386.997,455.998,348.988,465.677,308.715,465.677z"/>
<g>
	<path style="fill:#7F184C;" d="M367.914,417.236H248.456c-5.528,0-10.007-4.479-10.007-10.007s4.479-10.007,10.007-10.007h119.457
		c5.528,0,10.007,4.479,10.007,10.007S373.442,417.236,367.914,417.236z"/>
	<path style="fill:#7F184C;" d="M221.086,314.249c-24.337,0-46.325-6.227-58.817-16.658c-4.243-3.541-4.81-9.853-1.268-14.094
		c3.541-4.242,9.851-4.81,14.094-1.268c8.736,7.293,26.788,12.006,45.99,12.006c18.743,0,37.043-4.802,46.621-12.232
		c4.366-3.388,10.65-2.594,14.04,1.773c3.388,4.366,2.594,10.652-1.773,14.04C266.711,308.106,244.696,314.249,221.086,314.249z"/>
	<path style="fill:#7F184C;" d="M394.673,314.249c-24.337,0-46.325-6.227-58.817-16.658c-4.243-3.541-4.81-9.853-1.268-14.094
		s9.853-4.81,14.094-1.268c8.736,7.293,26.788,12.006,45.99,12.006c18.743,0,37.043-4.802,46.621-12.232
		c4.365-3.388,10.652-2.594,14.04,1.773c3.388,4.366,2.594,10.652-1.773,14.04C440.297,308.106,418.283,314.249,394.673,314.249z"/>
	<path style="fill:#7F184C;" d="M173.691,263.04c-3.719,0-7.18-0.418-10.265-1.272c-5.327-1.473-8.45-6.986-6.977-12.314
		c1.474-5.327,6.992-8.452,12.314-6.977c4.926,1.365,15.036,0.407,26.522-4.804c11.243-5.097,18.875-12.31,21.452-17.195
		c2.578-4.89,8.63-6.764,13.519-4.184c4.889,2.578,6.762,8.632,4.184,13.519c-5.244,9.943-16.791,19.696-30.889,26.089
		C193.247,260.575,182.715,263.04,173.691,263.04z"/>
	<path style="fill:#7F184C;" d="M439.49,263.04c-9.025,0-19.554-2.464-29.862-7.139c-14.097-6.391-25.644-16.144-30.887-26.087
		c-2.579-4.888-0.705-10.941,4.184-13.519c4.889-2.582,10.941-0.703,13.519,4.184c2.578,4.885,10.209,12.097,21.449,17.194
		c11.487,5.21,21.6,6.169,26.522,4.805c5.333-1.469,10.84,1.649,12.314,6.976c1.473,5.327-1.649,10.84-6.976,12.314
		C446.67,262.621,443.208,263.04,439.49,263.04z"/>
</g>
<path d="M355.562,20.084c-5.088-2.152-10.961,0.232-13.112,5.323s0.232,10.963,5.323,13.112
	c87.606,37.015,144.214,122.382,144.214,217.48c0,130.124-105.862,235.985-235.984,235.985S20.015,386.122,20.015,255.999
	S125.878,20.015,256.001,20.015c5.528,0,10.007-4.479,10.007-10.007S261.529,0,256.001,0c-141.16,0-256,114.84-256,255.999
	c0,141.16,114.84,256.001,256,256.001c141.158,0,255.999-114.84,255.999-256C512.001,152.839,450.594,60.236,355.562,20.084z"/>
<path d="M248.456,397.222c-5.528,0-10.007,4.479-10.007,10.007s4.479,10.007,10.007,10.007h119.457
	c5.528,0,10.007-4.479,10.007-10.007s-4.479-10.007-10.007-10.007H248.456z"/>
<path d="M175.097,282.23c-4.244-3.544-10.553-2.974-14.094,1.268c-3.543,4.243-2.974,10.553,1.268,14.094
	c12.492,10.43,34.48,16.658,58.817,16.658c23.609,0,45.624-6.143,58.889-16.432c4.367-3.388,5.161-9.674,1.773-14.04
	c-3.389-4.369-9.674-5.16-14.04-1.773c-9.579,7.429-27.879,12.232-46.621,12.232C201.885,294.236,183.832,289.522,175.097,282.23z"
	/>
<path d="M335.857,297.592c12.492,10.43,34.48,16.658,58.817,16.658c23.609,0,45.624-6.143,58.889-16.432
	c4.367-3.388,5.161-9.674,1.773-14.04c-3.388-4.369-9.675-5.16-14.04-1.773c-9.579,7.429-27.879,12.232-46.621,12.232
	c-19.202,0-37.254-4.713-45.99-12.006c-4.243-3.544-10.552-2.974-14.094,1.268C331.046,287.739,331.614,294.051,335.857,297.592z"/>
<path d="M173.691,263.04c9.024,0,19.554-2.463,29.859-7.136c14.098-6.393,25.647-16.145,30.889-26.088
	c2.579-4.888,0.705-10.941-4.184-13.519c-4.889-2.582-10.941-0.705-13.519,4.184c-2.578,4.885-10.209,12.097-21.452,17.194
	c-11.486,5.21-21.595,6.17-26.521,4.804c-5.323-1.468-10.84,1.649-12.314,6.976c-1.473,5.325,1.648,10.84,6.976,12.314
	C166.51,262.621,169.972,263.04,173.691,263.04z"/>
<path d="M409.63,255.904c10.308,4.673,20.837,7.136,29.861,7.136c3.717,0,7.181-0.418,10.266-1.273
	c5.325-1.474,8.448-6.988,6.973-12.314c-1.474-5.325-6.98-8.45-12.314-6.973c-4.921,1.357-15.031,0.406-26.521-4.805
	c-11.24-5.096-18.873-12.309-21.449-17.194c-2.578-4.889-8.63-6.765-13.519-4.184c-4.889,2.578-6.762,8.632-4.184,13.519
	C383.984,239.76,395.531,249.511,409.63,255.904z"/>
<circle cx="319.102" cy="18.841" r="10.007"/>
<g>
</g>
<g>
</g>
<g>
</g>
<g>
</g>
<g>
</g>
<g>
</g>
<g>
</g>
<g>
</g>
<g>
</g>
<g>
</g>
<g>
</g>
<g>
</g>
<g>
</g>
<g>
</g>
<g>
</g>
</svg>
